<?xml version="1.0" encoding="UTF-8"?>
<svg id="Capa_1" data-name="Capa 1" xmlns="http://www.w3.org/2000/svg" viewBox="0 0 4294.43 885.74">
  <defs>
    <style>
      .cls-1 {
        fill: #0e2cd3;
      }

      .cls-2 {
        fill: #0b2884;
      }
    </style>
  </defs>
  <path class="cls-1" d="m368.7,705.85c-32.35,0-60.01-3.99-82.97-11.95-22.97-7.97-42.08-18.28-57.31-30.94-15.24-12.66-27.31-26.13-36.21-40.43-8.91-14.29-15.59-27.77-20.04-40.43-4.46-12.66-8.09-26.95-10.9-42.89h97.03c2.34,11.25,5.62,21.22,9.84,29.88,4.22,8.68,10.43,17.23,18.63,25.67,8.2,8.44,19.22,15.59,33.05,21.44,13.82,5.87,31.05,8.79,51.68,8.79,31.87,0,56.13-7.14,72.78-21.44,16.63-14.29,24.96-31.99,24.96-53.09,0-17.81-6.33-31.99-18.99-42.54-12.66-10.55-31.41-18.39-56.25-23.55l-68.91-14.77c-26.72-5.63-51.68-14.06-74.89-25.31-23.2-11.25-41.84-26.48-55.9-45.7-14.06-19.22-21.09-43.83-21.09-73.83s7.85-58.59,23.56-81.56c15.7-22.96,37.38-40.66,65.04-53.09,27.65-12.41,60-18.63,97.03-18.63s64.22,5.16,87.19,15.47c22.96,10.32,41.36,22.97,55.2,37.97,13.82,15.01,24.02,30.01,30.59,45,6.56,15.01,11.95,32.82,16.17,53.44h-93.52c-3.76-14.52-8.91-26.48-15.47-35.86-6.57-9.37-16.41-17.69-29.53-24.96-13.13-7.26-30.71-10.9-52.74-10.9-31.41,0-54.26,7.03-68.56,21.09-14.3,14.06-21.45,29.3-21.45,45.7s6.56,30.01,19.69,39.38c13.12,9.38,30.7,16.64,52.74,21.8l73.83,15.47c27.65,6.1,52.97,15.24,75.94,27.42,22.96,12.2,41.24,28.24,54.85,48.17,13.59,19.93,20.39,44.65,20.39,74.18s-7.5,57.2-22.5,81.57c-15.01,24.38-37.04,43.72-66.1,58.01-29.07,14.3-64.69,21.44-106.88,21.44Z"/>
  <path class="cls-1" d="m794.8,319.12c23.91,0,43.59,3.87,59.06,11.6,15.47,7.73,27.65,16.17,36.56,25.31,8.9,9.14,15,16.52,18.28,22.15h4.22v-52.03h93.52v372.67h-93.52v-52.03h-4.22c-3.28,5.63-9.38,13.13-18.28,22.5-8.91,9.38-21.09,17.82-36.56,25.31-15.47,7.49-35.16,11.25-59.06,11.25-27.66,0-51.8-5.51-72.43-16.52-20.63-11.01-37.86-25.78-51.68-44.3-13.83-18.51-24.15-39.25-30.94-62.23-6.8-22.96-10.19-46.41-10.19-70.31s3.39-47.34,10.19-70.31c6.79-22.96,17.11-43.7,30.94-62.23,13.82-18.51,31.05-33.28,51.68-44.3,20.62-11.01,44.76-16.52,72.43-16.52Zm24.61,76.64c-21.09,0-38.79,5.75-53.09,17.23-14.3,11.49-24.96,26.14-31.99,43.95-7.03,17.82-10.55,36.33-10.55,55.55s3.52,37.74,10.55,55.55c7.03,17.82,17.69,32.47,31.99,43.95,14.29,11.49,31.99,17.23,53.09,17.23s38.67-5.73,52.74-17.23c14.06-11.48,24.61-26.13,31.64-43.95,7.03-17.81,10.55-36.32,10.55-55.55s-3.52-37.73-10.55-55.55c-7.03-17.81-17.58-32.45-31.64-43.95-14.06-11.48-31.64-17.23-52.74-17.23Z"/>
  <path class="cls-1" d="m1080.97,698.82v-64.69l196.88-233.45h-189.15v-74.53h302.35v64.69l-197.58,233.44h197.58v74.53h-310.09Z"/>
  <path class="cls-1" d="m1637.86,705.85c-41.25,0-76.06-9.14-104.42-27.42-28.37-18.28-49.92-42.07-64.69-71.37-14.77-29.29-22.15-60.82-22.15-94.57s7.38-65.27,22.15-94.57c14.77-29.29,36.32-53.09,64.69-71.37,28.36-18.28,63.16-27.42,104.42-27.42s76.05,9.14,104.42,27.42c28.36,18.28,49.92,42.08,64.69,71.37,14.77,29.3,22.15,60.82,22.15,94.57s-7.38,65.28-22.15,94.57c-14.77,29.3-36.33,53.09-64.69,71.37-28.37,18.28-63.17,27.42-104.42,27.42Zm0-78.05c20.62,0,38.2-5.38,52.74-16.17,14.52-10.78,25.54-24.96,33.05-42.54,7.49-17.58,11.25-36.44,11.25-56.6s-3.76-39.61-11.25-56.95c-7.5-17.34-18.52-31.4-33.05-42.19-14.54-10.78-32.11-16.17-52.74-16.17s-38.21,5.39-52.74,16.17c-14.54,10.79-25.55,24.85-33.05,42.19-7.5,17.35-11.25,36.33-11.25,56.95s3.75,39.03,11.25,56.6c7.49,17.58,18.51,31.76,33.05,42.54,14.52,10.79,32.1,16.17,52.74,16.17Zm22.57-367.58c-8.5,7.25-16.53,12.03-22.14,14.99-.24-12.95.66-28.93,4.46-46.79,2.24-10.5,5.09-19.88,8.09-28.03,2.94.06,9.61.62,16.27,5.08,9.67,6.48,12.22,16.46,12.77,18.85-.18-3.25-1.13-13.02-8.68-21.84-5.93-6.93-12.92-9.77-16.16-10.85.33-1.78.95-4.14,2.2-6.7,1.61-3.29,3.61-5.62,5.09-7.08,3.46.63,10.69,2.43,17.63,8.23,8.3,6.94,11.23,15.45,12.19,18.8.21-2.25,1.05-13.68-7.18-23.49-6.29-7.49-14.25-9.74-17.05-10.39.66-1.79,1.89-4.44,4.18-7.11,1.95-2.28,3.99-3.77,5.49-4.69,3.11.28,7.85,1.14,12.84,3.94,10.16,5.71,13.95,15.34,14.99,18.3-.07-3.24-.68-11.55-6.53-19.5-3.84-5.21-8.36-8.13-11.12-9.62,1.62-1.86,3.94-4.15,7.08-6.28,3.91-2.65,7.62-4.08,10.31-4.88,2.26.61,5.63,1.9,8.64,4.78,8.12,7.76,6.01,19.76,5.78,20.94,4.71-6.02,5.74-13.83,2.59-19.95-2.76-5.38-7.77-7.56-9.38-8.18,4.59-2.12,10.13-4.22,16.56-5.78,13.46-3.28,25.21-2.83,33.31-1.8-3.24-1.55-6.93-2.96-11.06-4.01-19.63-4.99-36.9,1.4-44.99,5.11-2.51-2.25-6.96-5.63-13.38-7.66-9.8-3.1-18.21-1.13-21.63-.12,3.17-.26,13.1-.66,20.85,6.08,1.78,1.55,3.14,3.21,4.19,4.79-3.02,1.26-6.49,2.97-10.17,5.29-3.96,2.5-7.2,5.1-9.75,7.43-3.36-1.92-8.63-4.37-15.49-5.43-10.42-1.62-18.81.86-22.94,2.39,3.55-.65,13.03-1.88,22.54,3.29,3.69,2,6.39,4.44,8.28,6.48-1.58,1.54-3.28,3.36-4.99,5.49-1.8,2.25-3.28,4.41-4.49,6.38-3.46-1.55-9.33-3.66-16.85-3.84-9.48-.23-16.72,2.71-20.35,4.49,4.55-.42,11.61-.47,19.68,2.01,4.77,1.47,8.63,3.44,11.54,5.22-1.26,2.5-2.51,5.13-3.73,7.9-.84,1.89-1.62,3.74-2.35,5.56-2.87-1.39-9.3-4.01-17.65-3.28-10.92.96-18,7.02-20.2,9.08,1.38-.94,10.16-6.68,21.02-3.79,7.15,1.9,11.4,6.54,12.94,8.43-.88,2.21-2.04,5.24-3.25,8.9,0,0-2.71,8.44-4.83,18.48-4.27,20.18-5.04,39.97-5.21,48.67-1.55,8.78-3.11,17.57-4.66,26.35-.3.39-1.17,1.41-2.71,1.9-1.61.51-2.97.13-3.43-.03,1.52-9.62,3.04-19.25,4.56-28.87-5.75-7.6-15.76-22.99-19.07-44.73-4.72-30.97,7.15-54.7,11.77-63.43,24.28-45.89,72.29-58.12,76.2-59.04,57.42-13.57,101.77,23.42,106.52,27.53-68,25.98-93.18,53.45-102.93,74.9-3.3,7.26-12.69,31.11-36.2,51.17Z"/>
  <path class="cls-1" d="m1909.27,698.82v-372.67h93.52v53.44h4.22c3.75-6.56,9.6-14.64,17.58-24.26,7.97-9.6,18.99-18.04,33.05-25.31,14.06-7.26,31.87-10.9,53.44-10.9,28.59,0,52.14,6.45,70.66,19.34,18.51,12.9,32.35,29.88,41.49,50.98,9.14,21.09,13.71,43.84,13.71,68.21v241.18h-93.52v-228.52c0-20.15-5.63-37.5-16.88-52.03-11.25-14.52-28.13-21.8-50.63-21.8-17.35,0-31.41,4.34-42.19,13.01-10.79,8.68-18.63,19.81-23.55,33.4-4.92,13.6-7.38,27.9-7.38,42.89v213.05h-93.52Z"/>
  <path class="cls-2" d="m2570.23,705.85c-43.59,0-81.56-7.49-113.91-22.5-32.34-15-59.19-35.27-80.51-60.82-21.34-25.54-37.27-54.14-47.81-85.78-10.55-31.64-15.82-64.1-15.82-97.39s5.27-65.85,15.82-97.74c10.55-31.87,26.6-60.58,48.17-86.14,21.56-25.54,48.75-45.94,81.56-61.18,32.81-15.23,71.02-22.85,114.61-22.85,34.21,0,63.64,4.34,88.25,13.01,24.61,8.68,45.23,19.81,61.88,33.4,16.63,13.6,29.99,28.02,40.08,43.24,10.07,15.24,17.69,29.65,22.85,43.24,5.15,13.6,9.6,29.07,13.36,46.41h-95.63c-3.28-12.66-7.5-23.66-12.66-33.05-5.16-9.37-12.55-18.74-22.15-28.13-9.61-9.37-22.15-17.23-37.62-23.55-15.47-6.33-34.7-9.49-57.66-9.49-27.66,0-51.68,5.16-72.07,15.47-20.39,10.32-37.39,24.15-50.98,41.49-13.6,17.35-23.68,36.81-30.23,58.36-6.57,21.57-9.84,43.6-9.84,66.1,0,30.48,6.09,59.77,18.28,87.89,12.18,28.13,30.35,51.1,54.49,68.91,24.14,17.82,54.02,26.72,89.65,26.72,41.24,0,73.94-11.25,98.09-33.75,24.14-22.5,37.85-52.5,41.14-90h-142.04v-75.94h234.85v38.67c0,53.91-10.32,99.04-30.94,135.36-20.63,36.33-48.64,63.76-84.03,82.27-35.4,18.52-75.13,27.77-119.18,27.77Z"/>
  <path class="cls-2" d="m2878.2,698.82v-372.67h92.82v51.33h3.52c6.56-14.53,17.34-27.89,32.34-40.08,15-12.18,37.5-18.28,67.5-18.28,9.37,0,20.15,1.18,32.34,3.52v90.71c-13.6-1.87-25.31-2.81-35.16-2.81-32.82,0-57.66,9.14-74.53,27.42-16.88,18.28-25.31,47.81-25.31,88.6v172.27h-93.52Z"/>
  <path class="cls-2" d="m3336.65,705.85c-40.78,0-75.48-9.14-104.06-27.42-28.6-18.28-50.28-42.07-65.04-71.37-14.77-29.29-22.15-60.82-22.15-94.57s7.38-65.27,22.15-94.57c14.77-29.29,36.44-53.09,65.04-71.37,28.59-18.28,63.28-27.42,104.06-27.42s76.05,9.14,104.42,27.42c28.36,18.28,49.93,42.08,64.69,71.37,14.77,29.3,22.15,60.82,22.15,94.57s-7.38,65.28-22.15,94.57c-14.77,29.3-36.33,53.09-64.69,71.37-28.37,18.28-63.17,27.42-104.42,27.42Zm0-78.05c21.09,0,38.78-5.38,53.09-16.17,14.29-10.78,25.19-24.96,32.7-42.54,7.49-17.58,11.25-36.44,11.25-56.6s-3.76-39.61-11.25-56.95c-7.51-17.34-18.4-31.4-32.7-42.19-14.31-10.78-31.99-16.17-53.09-16.17s-38.21,5.39-52.74,16.17c-14.53,10.79-25.56,24.85-33.05,42.19-7.51,17.35-11.25,36.33-11.25,56.95s3.74,39.03,11.25,56.6c7.49,17.58,18.51,31.76,33.05,42.54,14.53,10.79,32.1,16.17,52.74,16.17Z"/>
  <path class="cls-2" d="m3684.71,698.82l-116.72-372.67h93.52l74.53,255.95,79.46-255.95h85.08l79.46,255.95,74.53-255.95h93.52l-117.42,372.67h-99.14l-73.13-236.96-73.83,236.96h-99.85Z"/>
</svg>