<?xml version="1.0" encoding="UTF-8"?>
<svg id="Capa_1" data-name="Capa 1" xmlns="http://www.w3.org/2000/svg" viewBox="0 0 2160 2160">
  <defs>
    <style>
      .cls-1 {
        fill: #0e2cd3;
      }
    </style>
  </defs>
  <g id="Capa_3" data-name="Capa 3">
    <path class="cls-1" d="m320.53,1316.9c1.56,62.03,15.12,325.53,223.63,528.33,222.79,216.68,540.46,239.89,771.53,164.93,360.73-117.02,627.63-511.28,539.51-696.06-55.57-116.53-248.28-141.23-324.58-151.01-200.12-25.65-354.65,52.14-410.61,83.92-7.09-62.12-14.11-150.28-12.11-256.25,1.94-103.03,3.19-169.47,22.36-236.68,15.9-55.75,65.74-187.76,246.93-306.56-43.09,48.7-90.4,109.45-135.58,183.1-35.08,57.19-62.44,111.66-83.86,160.74,59.72-.25,219.74-9.12,364.48-122.85,252.48-198.38,223.74-531.31,221.15-556.43-23.39-1.68-383.59-21.79-573.06,250.19-88.27,126.71-99.83,259.9-100.63,325.66-8.06-32.9-21.32-77.47-43.79-127.66-24.82-55.43-81.71-182.47-209.69-273.98-153.9-110.04-322.58-105.76-381.07-101.54-19.9,88.76-11.04,157.04,1.86,204.06,55.35,201.76,276.52,329.71,331.72,359.68,96.92,52.62,181.94,72.8,226.13,162.82,15.18,30.93,19.62,58.02,27.32,107.4,9.52,61.09,17.25,148.03,7.45,255.31-19.99,18.34-242.22,216.05-495.72,143.5-80.24-22.97-139.55-66.12-178.91-102.5-11.49.62-22.98,1.24-34.48,1.86Z"/>
  </g>
</svg>