<?xml version="1.0" encoding="UTF-8"?>
<svg id="Capa_1" data-name="Capa 1" xmlns="http://www.w3.org/2000/svg" viewBox="0 0 4309.35 2160">
  <defs>
    <style>
      .cls-1 {
        fill: #0e2cd3;
      }

      .cls-2 {
        fill: #0b2884;
      }
    </style>
  </defs>
  <g>
    <path class="cls-1" d="m1496.37,1308.75c-23.26,0-43.15-2.87-59.66-8.59-16.52-5.73-30.26-13.15-41.21-22.25-10.96-9.1-19.64-18.79-26.04-29.07-6.41-10.28-11.21-19.97-14.41-29.07-3.21-9.1-5.82-19.38-7.84-30.84h69.78c1.68,8.09,4.04,15.26,7.08,21.49,3.03,6.24,7.5,12.39,13.4,18.46,5.89,6.07,13.82,11.21,23.76,15.42,9.94,4.22,22.33,6.32,37.16,6.32,22.92,0,40.36-5.14,52.33-15.42,11.96-10.28,17.95-23.01,17.95-38.18,0-12.81-4.55-23.01-13.65-30.59-9.1-7.58-22.59-13.22-40.45-16.94l-49.55-10.62c-19.21-4.05-37.16-10.11-53.85-18.2-16.69-8.09-30.08-19.04-40.2-32.87-10.11-13.82-15.17-31.51-15.17-53.09s5.64-42.13,16.94-58.65c11.29-16.51,26.88-29.24,46.77-38.18,19.89-8.93,43.14-13.4,69.78-13.4s46.18,3.71,62.7,11.12c16.51,7.42,29.75,16.52,39.69,27.3,9.94,10.79,17.27,21.58,21.99,32.36,4.72,10.79,8.6,23.6,11.63,38.43h-67.25c-2.7-10.44-6.41-19.04-11.12-25.79-4.72-6.74-11.8-12.72-21.24-17.95-9.44-5.22-22.08-7.84-37.92-7.84-22.59,0-39.02,5.06-49.3,15.17-10.29,10.11-15.42,21.07-15.42,32.87s4.72,21.58,14.16,28.31c9.43,6.75,22.07,11.97,37.92,15.67l53.09,11.12c19.89,4.38,38.09,10.96,54.61,19.72,16.51,8.77,29.66,20.31,39.44,34.64,9.77,14.33,14.66,32.11,14.66,53.34s-5.4,41.13-16.18,58.65c-10.79,17.53-26.63,31.44-47.53,41.71-20.9,10.29-46.52,15.42-76.85,15.42Z"/>
    <path class="cls-1" d="m1802.77,1030.65c17.19,0,31.35,2.78,42.47,8.34,11.12,5.56,19.89,11.63,26.29,18.2,6.4,6.57,10.78,11.88,13.15,15.93h3.03v-37.42h67.25v267.98h-67.25v-37.42h-3.03c-2.36,4.05-6.75,9.44-13.15,16.18-6.41,6.75-15.17,12.81-26.29,18.2-11.12,5.39-25.28,8.09-42.47,8.09-19.89,0-37.25-3.97-52.08-11.88-14.84-7.92-27.22-18.53-37.16-31.86-9.95-13.31-17.37-28.23-22.25-44.75-4.89-16.51-7.33-33.37-7.33-50.56s2.44-34.04,7.33-50.56c4.88-16.51,12.3-31.43,22.25-44.75,9.94-13.31,22.33-23.93,37.16-31.86,14.83-7.92,32.19-11.88,52.08-11.88Zm17.7,55.11c-15.17,0-27.9,4.13-38.18,12.39-10.29,8.26-17.95,18.8-23.01,31.6-5.06,12.82-7.58,26.13-7.58,39.94s2.53,27.14,7.58,39.94c5.06,12.82,12.72,23.35,23.01,31.6,10.28,8.26,23.01,12.39,38.18,12.39s27.81-4.12,37.92-12.39c10.11-8.26,17.7-18.79,22.75-31.6,5.06-12.81,7.58-26.12,7.58-39.94s-2.53-27.13-7.58-39.94c-5.06-12.81-12.64-23.34-22.75-31.6-10.11-8.26-22.75-12.39-37.92-12.39Z"/>
    <path class="cls-1" d="m2008.56,1303.69v-46.52l141.58-167.87h-136.01v-53.6h217.42v46.52l-142.08,167.87h142.08v53.6h-222.98Z"/>
    <path class="cls-1" d="m2409.01,1308.75c-29.67,0-54.69-6.57-75.09-19.72-20.4-13.15-35.9-30.25-46.52-51.32-10.62-21.06-15.93-43.74-15.93-68.01s5.31-46.94,15.93-68.01c10.62-21.06,26.12-38.18,46.52-51.32,20.39-13.15,45.42-19.72,75.09-19.72s54.69,6.57,75.09,19.72c20.39,13.15,35.9,30.26,46.52,51.32,10.62,21.07,15.93,43.74,15.93,68.01s-5.31,46.94-15.93,68.01c-10.62,21.07-26.13,38.17-46.52,51.32-20.4,13.15-45.43,19.72-75.09,19.72Zm0-56.12c14.83,0,27.47-3.87,37.92-11.63,10.44-7.75,18.37-17.95,23.76-30.59,5.39-12.64,8.09-26.21,8.09-40.7s-2.7-28.48-8.09-40.96c-5.4-12.47-13.32-22.58-23.76-30.34-10.45-7.75-23.09-11.63-37.92-11.63s-27.48,3.88-37.92,11.63c-10.45,7.76-18.38,17.87-23.76,30.34-5.4,12.47-8.09,26.13-8.09,40.96s2.69,28.06,8.09,40.7c5.39,12.64,13.31,22.84,23.76,30.59,10.44,7.76,23.08,11.63,37.92,11.63Zm16.23-264.32c-6.11,5.21-11.89,8.65-15.92,10.78-.17-9.31.48-20.8,3.21-33.65,1.61-7.55,3.66-14.29,5.82-20.16,2.12.05,6.91.45,11.7,3.65,6.95,4.66,8.79,11.84,9.18,13.55-.13-2.34-.82-9.36-6.24-15.71-4.26-4.98-9.29-7.02-11.62-7.8.23-1.28.68-2.98,1.58-4.82,1.16-2.37,2.6-4.04,3.66-5.09,2.49.45,7.69,1.75,12.68,5.92,5.97,4.99,8.08,11.11,8.77,13.52.15-1.62.76-9.84-5.16-16.89-4.52-5.39-10.25-7-12.26-7.47.48-1.28,1.36-3.19,3.01-5.12,1.4-1.64,2.87-2.71,3.95-3.37,2.23.2,5.65.82,9.23,2.84,7.31,4.11,10.03,11.03,10.78,13.16-.05-2.33-.49-8.31-4.7-14.02-2.76-3.75-6.01-5.85-8-6.92,1.17-1.34,2.83-2.98,5.09-4.52,2.81-1.91,5.48-2.94,7.41-3.51,1.63.44,4.05,1.37,6.22,3.43,5.84,5.58,4.32,14.21,4.16,15.06,3.38-4.33,4.12-9.94,1.86-14.34-1.99-3.87-5.59-5.43-6.74-5.88,3.3-1.52,7.28-3.04,11.91-4.16,9.68-2.36,18.13-2.04,23.95-1.29-2.33-1.12-4.98-2.13-7.95-2.89-14.12-3.59-26.53,1-32.36,3.67-1.8-1.62-5.01-4.05-9.62-5.51-7.05-2.23-13.1-.81-15.55-.09,2.28-.19,9.42-.48,14.99,4.38,1.28,1.11,2.26,2.31,3.01,3.44-2.17.91-4.67,2.13-7.32,3.8-2.85,1.8-5.17,3.67-7.01,5.34-2.41-1.38-6.21-3.14-11.14-3.91-7.49-1.16-13.53.62-16.5,1.72,2.56-.47,9.37-1.35,16.21,2.37,2.65,1.44,4.6,3.19,5.95,4.66-1.14,1.11-2.36,2.42-3.59,3.94-1.3,1.61-2.36,3.17-3.23,4.59-2.49-1.12-6.71-2.63-12.12-2.76-6.82-.16-12.02,1.95-14.63,3.23,3.27-.3,8.35-.34,14.15,1.44,3.43,1.06,6.21,2.47,8.3,3.75-.9,1.8-1.8,3.69-2.68,5.68-.6,1.36-1.16,2.69-1.69,4-2.06-1-6.69-2.88-12.7-2.36-7.86.69-12.94,5.05-14.52,6.53,1-.67,7.31-4.8,15.11-2.73,5.14,1.37,8.2,4.71,9.31,6.06-.64,1.59-1.47,3.77-2.33,6.4,0,0-1.95,6.07-3.48,13.29-3.07,14.51-3.62,28.74-3.75,35-1.12,6.32-2.23,12.63-3.35,18.95-.21.28-.84,1.01-1.95,1.36-1.16.37-2.14.09-2.46-.02,1.09-6.92,2.19-13.84,3.28-20.76-4.14-5.47-11.33-16.53-13.72-32.17-3.39-22.27,5.14-39.33,8.46-45.61,17.46-33,51.98-41.79,54.79-42.46,41.29-9.76,73.18,16.84,76.6,19.79-48.9,18.69-67,38.44-74.01,53.86-2.37,5.22-9.13,22.37-26.03,36.79Z"/>
    <path class="cls-1" d="m2604.18,1303.69v-267.98h67.25v38.43h3.03c2.69-4.72,6.9-10.53,12.64-17.44,5.73-6.9,13.65-12.97,23.77-18.2,10.11-5.22,22.92-7.84,38.43-7.84,20.56,0,37.5,4.64,50.81,13.9,13.31,9.27,23.26,21.49,29.83,36.66,6.57,15.17,9.86,31.52,9.86,49.05v173.43h-67.25v-164.33c0-14.49-4.05-26.96-12.14-37.42-8.09-10.44-20.23-15.67-36.4-15.67-12.47,0-22.59,3.12-30.34,9.35-7.76,6.24-13.4,14.25-16.94,24.02-3.54,9.78-5.31,20.06-5.31,30.84v153.2h-67.25Z"/>
    <path class="cls-2" d="m3079.46,1308.75c-31.35,0-58.65-5.39-81.91-16.18-23.26-10.78-42.56-25.36-57.89-43.74-15.34-18.37-26.8-38.93-34.38-61.69-7.58-22.75-11.38-46.09-11.38-70.03s3.79-47.35,11.38-70.28c7.58-22.92,19.13-43.56,34.64-61.94,15.5-18.37,35.05-33.03,58.65-43.99,23.59-10.95,51.07-16.43,82.42-16.43,24.6,0,45.76,3.12,63.46,9.35,17.7,6.24,32.52,14.25,44.49,24.02,11.96,9.78,21.57,20.15,28.82,31.1,7.24,10.96,12.72,21.32,16.43,31.1,3.7,9.78,6.9,20.9,9.61,33.37h-68.76c-2.36-9.1-5.4-17.02-9.1-23.76-3.71-6.74-9.02-13.48-15.93-20.23-6.91-6.74-15.93-12.39-27.05-16.94-11.12-4.55-24.95-6.83-41.46-6.83-19.89,0-37.16,3.71-51.83,11.12-14.66,7.42-26.88,17.36-36.66,29.83-9.78,12.47-17.03,26.47-21.74,41.97-4.73,15.51-7.08,31.35-7.08,47.53,0,21.92,4.38,42.98,13.15,63.2,8.76,20.23,21.82,36.75,39.19,49.55,17.36,12.81,38.85,19.21,64.47,19.21,29.66,0,53.17-8.09,70.53-24.27,17.36-16.18,27.22-37.75,29.58-64.72h-102.14v-54.61h168.88v27.81c0,38.77-7.42,71.22-22.25,97.33-14.84,26.13-34.97,45.85-60.42,59.16-25.46,13.32-54.02,19.97-85.7,19.97Z"/>
    <path class="cls-2" d="m3300.93,1303.69v-267.98h66.74v36.91h2.53c4.72-10.44,12.47-20.05,23.26-28.82,10.78-8.76,26.96-13.15,48.54-13.15,6.74,0,14.49.85,23.26,2.53v65.23c-9.78-1.34-18.2-2.02-25.28-2.02-23.6,0-41.46,6.57-53.6,19.72-12.14,13.15-18.2,34.38-18.2,63.71v123.88h-67.25Z"/>
    <path class="cls-2" d="m3630.59,1308.75c-29.33,0-54.28-6.57-74.83-19.72-20.57-13.15-36.15-30.25-46.77-51.32-10.62-21.06-15.93-43.74-15.93-68.01s5.31-46.94,15.93-68.01c10.62-21.06,26.2-38.18,46.77-51.32,20.56-13.15,45.51-19.72,74.83-19.72s54.69,6.57,75.09,19.72c20.39,13.15,35.9,30.26,46.52,51.32,10.62,21.07,15.93,43.74,15.93,68.01s-5.31,46.94-15.93,68.01c-10.62,21.07-26.13,38.17-46.52,51.32-20.4,13.15-45.43,19.72-75.09,19.72Zm0-56.12c15.17,0,27.89-3.87,38.18-11.63,10.28-7.75,18.11-17.95,23.51-30.59,5.39-12.64,8.09-26.21,8.09-40.7s-2.7-28.48-8.09-40.96c-5.4-12.47-13.23-22.58-23.51-30.34-10.29-7.75-23.01-11.63-38.18-11.63s-27.48,3.88-37.92,11.63c-10.45,7.76-18.38,17.87-23.76,30.34-5.4,12.47-8.09,26.13-8.09,40.96s2.69,28.06,8.09,40.7c5.39,12.64,13.31,22.84,23.76,30.59,10.44,7.76,23.09,11.63,37.92,11.63Z"/>
    <path class="cls-2" d="m3880.87,1303.69l-83.94-267.98h67.25l53.6,184.05,57.14-184.05h61.18l57.14,184.05,53.6-184.05h67.25l-84.44,267.98h-71.29l-52.59-170.4-53.09,170.4h-71.8Z"/>
  </g>
  <g id="Capa_3" data-name="Capa 3">
    <path class="cls-1" d="m216.56,1246.82c1.02,40.48,9.87,212.43,145.94,344.78,145.38,141.4,352.69,156.54,503.48,107.63,235.4-76.36,409.57-333.65,352.07-454.23-36.26-76.04-162.02-92.16-211.81-98.54-130.59-16.74-231.44,34.03-267.95,54.76-4.63-40.54-9.21-98.07-7.9-167.22,1.27-67.23,2.08-110.59,14.59-154.45,10.38-36.38,42.9-122.53,161.14-200.05-28.12,31.78-58.99,71.43-88.47,119.49-22.89,37.32-40.75,72.87-54.73,104.89,38.97-.16,143.39-5.95,237.85-80.17,164.76-129.46,146.01-346.72,144.32-363.11-15.26-1.1-250.32-14.22-373.96,163.27-57.6,82.69-65.15,169.6-65.67,212.52-5.26-21.47-13.91-50.56-28.58-83.31-16.2-36.17-53.32-119.07-136.84-178.79-100.43-71.81-210.51-69.02-248.68-66.26-12.99,57.92-7.2,102.48,1.22,133.17,36.12,131.66,180.45,215.16,216.47,234.71,63.25,34.34,118.73,47.51,147.57,106.25,9.91,20.18,12.8,37.86,17.83,70.09,6.21,39.86,11.26,96.6,4.86,166.61-13.05,11.97-158.07,140.99-323.49,93.64-52.36-14.99-91.07-43.15-116.75-66.89-7.5.41-15,.81-22.5,1.22Z"/>
  </g>
</svg>