<?xml version="1.0" encoding="UTF-8"?>
<svg id="Capa_1" data-name="Capa 1" xmlns="http://www.w3.org/2000/svg" viewBox="0 0 2160 2160">
  <defs>
    <style>
      .cls-1 {
        fill: #0e2cd3;
      }

      .cls-2 {
        fill: #0b2884;
      }
    </style>
  </defs>
  <g>
    <path class="cls-1" d="m208.32,1959.4c-15.79,0-29.29-1.95-40.5-5.83-11.21-3.89-20.54-8.92-27.97-15.1-7.44-6.18-13.33-12.75-17.67-19.73-4.35-6.98-7.61-13.56-9.78-19.73-2.18-6.18-3.95-13.15-5.32-20.93h47.36c1.14,5.49,2.75,10.35,4.8,14.59,2.06,4.24,5.09,8.41,9.09,12.53,4,4.12,9.38,7.61,16.13,10.47,6.75,2.86,15.15,4.29,25.22,4.29,15.56,0,27.4-3.49,35.52-10.47,8.12-6.98,12.18-15.62,12.18-25.91,0-8.69-3.09-15.62-9.27-20.76-6.18-5.15-15.33-8.98-27.45-11.5l-33.63-7.21c-13.04-2.75-25.22-6.86-36.55-12.35-11.32-5.49-20.42-12.92-27.28-22.31-6.86-9.38-10.3-21.39-10.3-36.03s3.83-28.6,11.5-39.81c7.66-11.21,18.24-19.85,31.74-25.91,13.5-6.06,29.28-9.09,47.36-9.09s31.34,2.52,42.55,7.55c11.21,5.03,20.19,11.21,26.94,18.53,6.75,7.33,11.72,14.64,14.93,21.96,3.2,7.33,5.83,16.02,7.89,26.08h-45.64c-1.83-7.09-4.35-12.92-7.55-17.5-3.21-4.57-8.01-8.63-14.41-12.18-6.41-3.54-14.99-5.32-25.74-5.32-15.33,0-26.48,3.43-33.46,10.3-6.98,6.86-10.47,14.3-10.47,22.31s3.2,14.64,9.61,19.22c6.4,4.58,14.98,8.12,25.74,10.64l36.03,7.55c13.5,2.98,25.85,7.44,37.06,13.38,11.21,5.95,20.13,13.79,26.77,23.51,6.63,9.73,9.95,21.79,9.95,36.21s-3.66,27.92-10.98,39.81c-7.33,11.9-18.08,21.34-32.26,28.31-14.19,6.98-31.57,10.47-52.16,10.47Z"/>
    <path class="cls-1" d="m416.29,1770.65c11.67,0,21.28,1.89,28.83,5.66s13.5,7.89,17.85,12.35c4.34,4.46,7.32,8.06,8.92,10.81h2.06v-25.4h45.64v181.89h-45.64v-25.4h-2.06c-1.6,2.75-4.58,6.41-8.92,10.98-4.35,4.58-10.3,8.7-17.85,12.35-7.55,3.66-17.16,5.49-28.83,5.49-13.5,0-25.28-2.69-35.35-8.06-10.07-5.37-18.48-12.58-25.22-21.62-6.75-9.04-11.79-19.16-15.1-30.37-3.32-11.21-4.98-22.65-4.98-34.32s1.66-23.11,4.98-34.32c3.31-11.21,8.35-21.33,15.1-30.37,6.75-9.04,15.15-16.24,25.22-21.62,10.07-5.37,21.85-8.06,35.35-8.06Zm12.01,37.41c-10.3,0-18.93,2.8-25.91,8.41-6.98,5.61-12.18,12.76-15.61,21.45-3.43,8.7-5.15,17.73-5.15,27.11s1.72,18.42,5.15,27.11c3.43,8.7,8.63,15.85,15.61,21.45,6.98,5.61,15.62,8.41,25.91,8.41s18.88-2.8,25.74-8.41c6.86-5.6,12.01-12.75,15.44-21.45,3.43-8.69,5.15-17.73,5.15-27.11s-1.72-18.41-5.15-27.11c-3.43-8.69-8.58-15.84-15.44-21.45-6.86-5.6-15.44-8.41-25.74-8.41Z"/>
    <path class="cls-1" d="m555.96,1955.97v-31.57l96.09-113.94h-92.32v-36.38h147.57v31.57l-96.43,113.94h96.43v36.38h-151.34Z"/>
    <path class="cls-1" d="m827.76,1959.4c-20.14,0-37.12-4.46-50.96-13.38-13.85-8.92-24.37-20.53-31.57-34.83-7.21-14.3-10.81-29.69-10.81-46.16s3.6-31.86,10.81-46.16c7.21-14.3,17.73-25.91,31.57-34.83,13.84-8.92,30.83-13.38,50.96-13.38s37.12,4.46,50.96,13.38c13.84,8.92,24.37,20.54,31.57,34.83,7.21,14.3,10.81,29.69,10.81,46.16s-3.6,31.86-10.81,46.16c-7.21,14.3-17.73,25.91-31.57,34.83-13.85,8.92-30.83,13.38-50.96,13.38Zm0-38.09c10.06,0,18.64-2.63,25.74-7.89,7.09-5.26,12.47-12.18,16.13-20.76,3.66-8.58,5.49-17.79,5.49-27.63s-1.83-19.33-5.49-27.8c-3.66-8.46-9.04-15.32-16.13-20.59-7.09-5.26-15.67-7.89-25.74-7.89s-18.65,2.63-25.74,7.89c-7.09,5.27-12.47,12.13-16.13,20.59-3.66,8.47-5.49,17.73-5.49,27.8s1.83,19.05,5.49,27.63c3.66,8.58,9.04,15.5,16.13,20.76,7.09,5.27,15.67,7.89,25.74,7.89Zm11.02-179.4c-4.15,3.54-8.07,5.87-10.8,7.32-.12-6.32.32-14.12,2.18-22.84,1.09-5.13,2.49-9.7,3.95-13.68,1.44.03,4.69.3,7.94,2.48,4.72,3.16,5.97,8.03,6.23,9.2-.09-1.59-.55-6.36-4.23-10.66-2.89-3.38-6.3-4.77-7.89-5.3.16-.87.46-2.02,1.07-3.27.78-1.61,1.76-2.74,2.48-3.46,1.69.31,5.22,1.19,8.61,4.02,4.05,3.39,5.48,7.54,5.95,9.17.1-1.1.51-6.68-3.5-11.46-3.07-3.66-6.96-4.75-8.32-5.07.32-.87.92-2.17,2.04-3.47.95-1.11,1.95-1.84,2.68-2.29,1.52.14,3.83.56,6.27,1.93,4.96,2.79,6.81,7.49,7.31,8.93-.03-1.58-.33-5.64-3.19-9.52-1.87-2.54-4.08-3.97-5.43-4.7.79-.91,1.92-2.03,3.46-3.07,1.91-1.3,3.72-1.99,5.03-2.38,1.11.3,2.75.93,4.22,2.33,3.96,3.79,2.93,9.64,2.82,10.22,2.3-2.94,2.8-6.75,1.27-9.74-1.35-2.63-3.79-3.69-4.58-3.99,2.24-1.03,4.94-2.06,8.08-2.82,6.57-1.6,12.3-1.38,16.26-.88-1.58-.76-3.38-1.45-5.4-1.96-9.58-2.44-18.01.68-21.96,2.49-1.22-1.1-3.4-2.75-6.53-3.74-4.79-1.51-8.89-.55-10.56-.06,1.55-.13,6.39-.32,10.17,2.97.87.76,1.53,1.57,2.04,2.34-1.47.62-3.17,1.45-4.97,2.58-1.93,1.22-3.51,2.49-4.76,3.63-1.64-.94-4.21-2.13-7.56-2.65-5.08-.79-9.18.42-11.2,1.17,1.73-.32,6.36-.92,11,1.61,1.8.98,3.12,2.16,4.04,3.16-.77.75-1.6,1.64-2.43,2.68-.88,1.1-1.6,2.15-2.19,3.12-1.69-.76-4.55-1.78-8.23-1.87-4.63-.11-8.16,1.32-9.93,2.19,2.22-.2,5.67-.23,9.6.98,2.33.72,4.21,1.68,5.63,2.55-.61,1.22-1.22,2.51-1.82,3.85-.41.92-.79,1.83-1.15,2.71-1.4-.68-4.54-1.96-8.62-1.6-5.33.47-8.78,3.43-9.86,4.43.68-.46,4.96-3.26,10.26-1.85,3.49.93,5.56,3.19,6.32,4.11-.43,1.08-1,2.56-1.58,4.35,0,0-1.32,4.12-2.36,9.02-2.08,9.85-2.46,19.51-2.54,23.76-.76,4.29-1.52,8.57-2.27,12.86-.15.19-.57.69-1.32.93-.79.25-1.45.06-1.67-.01.74-4.7,1.48-9.39,2.23-14.09-2.81-3.71-7.69-11.22-9.31-21.83-2.3-15.11,3.49-26.7,5.74-30.96,11.85-22.4,35.28-28.37,37.19-28.82,28.03-6.63,49.67,11.43,51.99,13.44-33.19,12.68-45.48,26.09-50.24,36.56-1.61,3.54-6.19,15.18-17.67,24.97Z"/>
    <path class="cls-1" d="m960.23,1955.97v-181.89h45.64v26.08h2.06c1.83-3.2,4.69-7.15,8.58-11.84,3.89-4.69,9.27-8.81,16.13-12.35,6.86-3.54,15.55-5.32,26.08-5.32,13.95,0,25.45,3.15,34.49,9.44,9.04,6.3,15.79,14.59,20.25,24.88,4.46,10.3,6.69,21.4,6.69,33.29v117.71h-45.64v-111.53c0-9.83-2.75-18.3-8.24-25.4-5.49-7.09-13.73-10.64-24.71-10.64-8.47,0-15.33,2.12-20.59,6.35-5.27,4.24-9.09,9.67-11.5,16.3-2.4,6.64-3.6,13.62-3.6,20.94v103.98h-45.64Z"/>
    <path class="cls-2" d="m1282.82,1959.4c-21.28,0-39.81-3.66-55.6-10.98-15.79-7.32-28.89-17.21-39.29-29.69-10.41-12.47-18.19-26.42-23.34-41.87-5.15-15.44-7.72-31.28-7.72-47.53s2.57-32.14,7.72-47.7c5.15-15.56,12.98-29.57,23.51-42.04,10.52-12.47,23.79-22.42,39.81-29.86,16.01-7.43,34.66-11.15,55.94-11.15,16.7,0,31.06,2.12,43.07,6.35,12.01,4.24,22.08,9.67,30.2,16.3,8.12,6.64,14.64,13.67,19.56,21.11,4.92,7.44,8.63,14.47,11.15,21.11,2.51,6.64,4.69,14.19,6.52,22.65h-46.67c-1.6-6.18-3.66-11.55-6.18-16.13-2.52-4.57-6.12-9.15-10.81-13.73-4.69-4.57-10.81-8.41-18.36-11.5-7.55-3.09-16.93-4.63-28.14-4.63-13.5,0-25.22,2.52-35.18,7.55-9.95,5.03-18.25,11.79-24.88,20.25-6.64,8.47-11.56,17.96-14.76,28.48-3.21,10.53-4.8,21.28-4.8,32.26,0,14.87,2.97,29.17,8.92,42.9,5.95,13.73,14.81,24.94,26.6,33.63,11.78,8.7,26.37,13.04,43.76,13.04,20.13,0,36.09-5.49,47.87-16.47,11.78-10.98,18.47-25.62,20.08-43.93h-69.32v-37.06h114.62v18.88c0,26.31-5.03,48.34-15.1,66.06-10.07,17.73-23.74,31.12-41.01,40.15-17.28,9.04-36.67,13.56-58.17,13.56Z"/>
    <path class="cls-2" d="m1433.13,1955.97v-181.89h45.3v25.05h1.72c3.2-7.09,8.46-13.61,15.79-19.56,7.32-5.95,18.3-8.92,32.95-8.92,4.57,0,9.83.57,15.79,1.72v44.27c-6.64-.91-12.35-1.37-17.16-1.37-16.02,0-28.14,4.46-36.38,13.38-8.24,8.92-12.35,23.34-12.35,43.24v84.08h-45.64Z"/>
    <path class="cls-2" d="m1656.88,1959.4c-19.9,0-36.84-4.46-50.79-13.38-13.96-8.92-24.54-20.53-31.74-34.83-7.21-14.3-10.81-29.69-10.81-46.16s3.6-31.86,10.81-46.16c7.21-14.3,17.79-25.91,31.74-34.83,13.95-8.92,30.89-13.38,50.79-13.38s37.12,4.46,50.96,13.38c13.84,8.92,24.37,20.54,31.57,34.83,7.21,14.3,10.81,29.69,10.81,46.16s-3.6,31.86-10.81,46.16c-7.21,14.3-17.73,25.91-31.57,34.83-13.84,8.92-30.83,13.38-50.96,13.38Zm0-38.09c10.3,0,18.93-2.63,25.91-7.89,6.98-5.26,12.3-12.18,15.96-20.76,3.66-8.58,5.49-17.79,5.49-27.63s-1.83-19.33-5.49-27.8c-3.66-8.46-8.98-15.32-15.96-20.59-6.98-5.26-15.62-7.89-25.91-7.89s-18.65,2.63-25.74,7.89c-7.09,5.27-12.47,12.13-16.13,20.59-3.66,8.47-5.49,17.73-5.49,27.8s1.83,19.05,5.49,27.63c3.66,8.58,9.04,15.5,16.13,20.76,7.09,5.27,15.67,7.89,25.74,7.89Z"/>
    <path class="cls-2" d="m1826.76,1955.97l-56.97-181.89h45.64l36.38,124.92,38.78-124.92h41.52l38.78,124.92,36.38-124.92h45.64l-57.31,181.89h-48.39l-35.69-115.65-36.03,115.65h-48.73Z"/>
  </g>
  <g id="Capa_3" data-name="Capa 3">
    <path class="cls-1" d="m550.48,1023.59c1.07,42.34,10.32,222.19,152.64,360.61,152.06,147.89,368.88,163.73,526.6,112.57,246.22-79.87,428.38-348.97,368.24-475.09-37.93-79.54-169.46-96.39-221.54-103.07-136.59-17.5-242.06,35.59-280.26,57.28-4.84-42.4-9.63-102.57-8.27-174.9,1.33-70.32,2.18-115.67,15.26-161.54,10.85-38.05,44.87-128.15,168.54-209.24-29.41,33.24-61.7,74.71-92.54,124.97-23.94,39.03-42.62,76.21-57.24,109.71,40.76-.17,149.98-6.23,248.78-83.85,172.33-135.4,152.71-362.64,150.95-379.79-15.96-1.15-261.82-14.87-391.14,170.76-60.25,86.49-68.14,177.39-68.69,222.28-5.5-22.45-14.55-52.88-29.89-87.13-16.94-37.83-55.77-124.54-143.12-187-105.04-75.11-220.18-72.19-260.1-69.3-13.58,60.58-7.53,107.19,1.27,139.28,37.78,137.71,188.74,225.04,226.41,245.49,66.15,35.92,124.18,49.69,154.35,111.13,10.36,21.11,13.39,39.6,18.64,73.3,6.5,41.69,11.77,101.04,5.09,174.26-13.64,12.52-165.33,147.46-338.35,97.94-54.77-15.67-95.25-45.13-122.11-69.96-7.84.42-15.69.85-23.53,1.27Z"/>
  </g>
</svg>